<svg xmlns="http://www.w3.org/2000/svg" xmlns:xlink="http://www.w3.org/1999/xlink" viewBox="0 0 1627.73 487.83"><defs><style>.cls-1{isolation:isolate;}.cls-15,.cls-2,.cls-3,.cls-4,.cls-8{fill:#c7c3c2;}.cls-10,.cls-13,.cls-2,.cls-3,.cls-4,.cls-5,.cls-6,.cls-7,.cls-8,.cls-9{fill-rule:evenodd;}.cls-2{opacity:0.19;}.cls-10,.cls-12,.cls-13,.cls-2,.cls-3,.cls-6,.cls-7,.cls-9{mix-blend-mode:multiply;}.cls-5{fill:#f6f5f6;}.cls-13,.cls-6{fill:#d71b23;}.cls-6,.cls-8{opacity:0.8;}.cls-10,.cls-7{opacity:0.63;}.cls-7{fill:url(#linear-gradient);}.cls-9{fill:url(#linear-gradient-2);}.cls-10{fill:url(#linear-gradient-3);}.cls-11{opacity:0.71;}.cls-12{fill:url(#linear-gradient-4);}.cls-13{opacity:0.95;}.cls-14{fill:#cf0a2c;}.cls-16{font-size:29.4px;fill:#ce1422;}.cls-16,.cls-19{font-family:Myriad Pro;}.cls-17{font-weight:700;}.cls-18,.cls-19{fill:#6a686b;}.cls-19{font-size:7.19px;}</style><linearGradient id="linear-gradient" x1="1365.97" y1="280.78" x2="1600" y2="280.78" gradientUnits="userSpaceOnUse"><stop offset="0" stop-color="#73c8db"/><stop offset="1" stop-color="#da1b1b"/></linearGradient><linearGradient id="linear-gradient-2" x1="734.81" y1="146.49" x2="1089.2" y2="146.49" xlink:href="#linear-gradient"/><linearGradient id="linear-gradient-3" x1="1087.01" y1="375.04" x2="1263.49" y2="375.04" xlink:href="#linear-gradient"/><linearGradient id="linear-gradient-4" x1="7239.31" y1="-6389.96" x2="6968.68" y2="-6389.96" gradientTransform="translate(7191.23 6477.62) rotate(-96.02)" xlink:href="#linear-gradient"/></defs><title>header</title><g class="cls-1"><g id="Capa_1" data-name="Capa 1"><polygon class="cls-2" points="117.04 54.09 593.65 234.88 593.65 452.88 118.73 255.21 117.04 54.09"/><polygon class="cls-3" points="425.96 70.24 717.14 190.26 717.14 280.78 425.96 160.76 425.96 70.24"/><polygon class="cls-4" points="779.3 339.95 919.63 397.79 919.63 441.41 779.3 383.57 779.3 339.95"/><polygon class="cls-3" points="364.29 0 962.51 246.58 962.51 432.55 364.29 185.97 364.29 0"/><polygon class="cls-5" points="92.65 22.88 569.26 203.67 569.26 421.67 94.34 224 92.65 22.88"/><polygon class="cls-6" points="1317.22 107.02 1627.72 235.01 1627.72 331.53 1317.22 203.55 1317.22 107.02"/><polygon class="cls-7" points="1365.97 196.18 1600 292.64 1600 365.39 1365.97 268.93 1365.97 196.18"/><polygon class="cls-3" points="92.23 208.88 283.03 287.92 283.03 325.99 92.23 246.98 92.23 208.88"/><polygon class="cls-8" points="864.03 231.59 1218.42 377.66 1218.42 487.83 864.03 341.76 864.03 231.59"/><polygon class="cls-9" points="734.82 18.37 1089.2 164.44 1089.2 274.61 734.82 128.54 734.82 18.37"/><polygon class="cls-10" points="1087.01 294.34 1263.22 365.51 1263.49 455.74 1087.01 383 1087.01 294.34"/><g class="cls-11"><polygon class="cls-12" points="0 136.18 187.63 215.28 187.63 64.07 0 4.42 0 136.18"/></g><polygon class="cls-13" points="684.65 86.29 1058.01 240.19 1058.01 356.26 684.65 202.36 684.65 86.29"/><path class="cls-14" d="M328.21,167a29.84,29.84,0,0,0-28.05-20.73l3.23,3.79-3.31,3.86a22.16,22.16,0,0,1,21.48,17.92l0.72,3.72,3.73-.68a13.29,13.29,0,1,1,2.41,26.36l-3,.2-24.79-33v40.48l27.81,0A20.94,20.94,0,1,0,328.21,167Z" transform="translate(0 0)"/><path class="cls-15" d="M272,201.23a13.29,13.29,0,0,1,0-26.58,13.51,13.51,0,0,1,1.8.13l3.57,0.48,0.7-3.53a22.19,22.19,0,0,1,17.37-17.38l3.69-4.3-3-3.56A29.89,29.89,0,0,0,271.42,167a20.94,20.94,0,0,0,.61,41.87h3.17l1-1.93L298,168.45,272.63,201.3Z" transform="translate(0 0)"/><text class="cls-16" transform="translate(235.39 237.73)"><tspan class="cls-17">P</tspan><tspan class="cls-17" x="17.58" y="0">y</tspan><tspan class="cls-17" x="33.23" y="0">r</tspan><tspan class="cls-17" x="44.34" y="0">a</tspan><tspan class="cls-18" x="60.13" y="0">Cloud</tspan></text><text class="cls-19" transform="translate(271.27 253.49)">f<tspan x="2.23" y="0">r</tspan><tspan x="4.64" y="0">om </tspan><tspan x="16.5" y="0">S</tspan><tspan x="20.22" y="0">o</tspan><tspan x="24.3" y="0">f</tspan><tspan x="26.61" y="0">t</tspan><tspan x="29.19" y="0">w</tspan><tspan x="34.58" y="0">a</tspan><tspan x="38.18" y="0">r</tspan><tspan x="40.59" y="0">eONE</tspan></text></g></g></svg>