<svg id="Capa_1" data-name="Capa 1" xmlns="http://www.w3.org/2000/svg" viewBox="0 0 361.67 305.09"><defs><style>.cls-1{fill:#cf0a2c;}.cls-2{fill:#c7c3c2;}.cls-3{font-size:82.29px;fill:#ce1422;}.cls-3,.cls-7{font-family:Myriad Pro;}.cls-4,.cls-5{font-weight:700;}.cls-4{letter-spacing:1px;}.cls-6,.cls-7{fill:#6a686b;}.cls-6{letter-spacing:-2px;}.cls-7{font-size:20.13px;}</style></defs><title>logo</title><path class="cls-1" d="M263.16,61.39a83.51,83.51,0,0,0-78.51-58l9,10.6-9.27,10.81a62,62,0,0,1,60.12,50.14l2,10.41L257,83.42a37.19,37.19,0,1,1,6.73,73.76l-8.45.56L185.89,65.4V178.69l77.83-.09A58.6,58.6,0,1,0,263.16,61.39Z" transform="translate(-3.42 -3.36)"/><path class="cls-2" d="M105.93,157.18a37.19,37.19,0,0,1,0-74.38,37.81,37.81,0,0,1,5,.35l10,1.35,2-9.88A62.09,62.09,0,0,1,171.5,26l10.32-12-8.5-10a83.65,83.65,0,0,0-69.1,57.41,58.61,58.61,0,0,0,1.71,117.19l8.86,0,2.74-5.4L178.65,65.45l-71,91.92Z" transform="translate(-3.42 -3.36)"/><text class="cls-3" transform="translate(0 255.97)"><tspan class="cls-4">P</tspan><tspan class="cls-5" x="49.21" y="0">y</tspan><tspan class="cls-5" x="92.99" y="0">r</tspan><tspan class="cls-5" x="124.1" y="0">a</tspan><tspan class="cls-6" x="168.29" y="0">Cloud</tspan></text><text class="cls-7" transform="translate(100.4 300.06)">f<tspan x="6.24" y="0">r</tspan><tspan x="12.99" y="0">om </tspan><tspan x="46.18" y="0">S</tspan><tspan x="56.59" y="0">o</tspan><tspan x="68.01" y="0">f</tspan><tspan x="74.47" y="0">t</tspan><tspan x="81.68" y="0">w</tspan><tspan x="96.78" y="0">a</tspan><tspan x="106.84" y="0">r</tspan><tspan x="113.59" y="0">eONE</tspan></text></svg>